Musala-Senal.ufo
<glyph name="exclam" format="2">
	<advance width="278.92"/>
	<unicode hex="0021"/>
	<outline>
		<contour>
			<point x="216.245" y="27.353" type="curve" smooth="yes"/>
			<point x="216.245" y="-18.071"/>
			<point x="179.445" y="-49.894"/>
			<point x="133.125" y="-49.894" type="curve" smooth="yes"/>
			<point x="87.219" y="-49.894"/>
			<point x="50.004" y="-18.071"/>
			<point x="50.004" y="27.353" type="curve" smooth="yes"/>
			<point x="50.004" y="72.777"/>
			<point x="87.219" y="104.599"/>
			<point x="133.125" y="104.599" type="curve" smooth="yes"/>
			<point x="179.365" y="104.599"/>
			<point x="216.245" y="72.777"/>
		</contour>
		<contour>
			<point x="200.835" y="600" type="curve"/>
			<point x="189.74" y="370" type="line"/>
			<point x="190.753" y="340.723"/>
			<point x="199.288" y="276.733"/>
			<point x="200.878" y="258.08" type="curve"/>
			<point x="195.02" y="251.966"/>
			<point x="128.715" y="211.158"/>
			<point x="118.065" y="211.08" type="curve" smooth="yes"/>
			<point x="107.149" y="211"/>
			<point x="69.732" y="222.095"/>
			<point x="64.878" y="226.08" type="curve"/>
			<point x="65.255" y="798.229" type="line"/>
			<point x="228.918" y="798.229" type="line"/>
			<point x="217.974" y="727.997"/>
			<point x="203.513" y="635.464"/>
		</contour>
	</outline>
</glyph>
<glyph name="numbersign" format="2">
	<advance width="691.8"/>
	<unicode hex="0023"/>
	<outline>
		<contour>
			<point x="87.34584" y="513.05744" type="line"/>
			<point x="87.34584" y="406.05744" type="line"/>
			<point x="171.08815" y="409.02644"/>
			<point x="254.81685" y="410.99644"/>
			<point x="370.19434" y="410.96544" type="curve" smooth="yes"/>
			<point x="511.96716" y="410.93644"/>
			<point x="604.64909" y="409.02644"/>
			<point x="684.80331" y="406.05744" type="curve"/>
			<point x="684.80331" y="513.05744" type="line"/>
		</contour>
		<contour>
			<point x="94.957" y="-0.27256" type="curve"/>
			<point x="230.088" y="-0.27256" type="line"/>
			<point x="380.41787" y="684.98479" type="line"/>
			<point x="376.49887" y="689.89179"/>
			<point x="348.16287" y="708.10879"/>
			<point x="337.46887" y="710.29979" type="curve" smooth="yes"/>
			<point x="327.03487" y="712.43779"/>
			<point x="232.02887" y="695.00179"/>
			<point x="225.02787" y="690.23879" type="curve"/>
			<point x="227.72287" y="657.59279"/>
			<point x="204.855" y="498.86244"/>
			<point x="198.685" y="468.23344" type="curve"/>
			<point x="128.79" y="141.07544" type="line"/>
			<point x="123.994" y="118.54644"/>
			<point x="100.942" y="15.89144"/>
		</contour>
		<contour>
			<point x="359.577" y="-0.20856" type="curve"/>
			<point x="496.708" y="-0.20856" type="line"/>
			<point x="647.03787" y="685.04879" type="line"/>
			<point x="643.11887" y="689.95579"/>
			<point x="610.78287" y="708.17279"/>
			<point x="600.08887" y="710.36379" type="curve" smooth="yes"/>
			<point x="589.65487" y="712.50179"/>
			<point x="496.64887" y="695.06579"/>
			<point x="489.64787" y="690.30279" type="curve"/>
			<point x="492.34287" y="657.65679"/>
			<point x="471.475" y="498.92644"/>
			<point x="465.305" y="468.29744" type="curve"/>
			<point x="395.41" y="141.13944" type="line"/>
			<point x="390.614" y="118.61044"/>
			<point x="365.562" y="15.95544"/>
		</contour>
		<contour>
			<point x="43.99709" y="287.84878" type="line"/>
			<point x="43.99709" y="180.84878" type="line"/>
			<point x="127.73939" y="183.81778"/>
			<point x="208.4681" y="185.78778"/>
			<point x="323.83624" y="185.75678" type="curve" smooth="yes"/>
			<point x="465.61841" y="185.72778"/>
			<point x="561.30033" y="183.81778"/>
			<point x="641.45456" y="180.84878" type="curve"/>
			<point x="641.45456" y="287.84878" type="line"/>
		</contour>
	</outline>
</glyph>
<glyph name="ampersand" format="2">
	<advance width="645.74"/>
	<unicode hex="0026"/>
	<guideline x="617.3" y="348.48" angle="270"/>
	<outline>
		<contour>
			<point x="495.811" y="0" type="curve"/>
			<point x="512.516" y="0.794"/>
			<point x="616.735" y="81"/>
			<point x="616.735" y="90.45" type="curve"/>
			<point x="541.949" y="131.971"/>
			<point x="275.116" y="300"/>
			<point x="232.988" y="599.706" type="curve" smooth="yes"/>
			<point x="226.405" y="646.541"/>
			<point x="282.684" y="704.027"/>
			<point x="361.374" y="704.027" type="curve" smooth="yes"/>
			<point x="414.809" y="704.027"/>
			<point x="446.421" y="684.09"/>
			<point x="459.385" y="676.685" type="curve"/>
			<point x="468.974" y="684.863"/>
			<point x="503.191" y="733.742"/>
			<point x="503.191" y="742.183" type="curve" smooth="yes"/>
			<point x="503.191" y="749.998"/>
			<point x="484.742" y="781.9"/>
			<point x="478.444" y="788.424" type="curve"/>
			<point x="459.385" y="793.602"/>
			<point x="426.871" y="800.63"/>
			<point x="379.496" y="800.63" type="curve" smooth="yes"/>
			<point x="324.793" y="800.63"/>
			<point x="245.959" y="778.377"/>
			<point x="226.046" y="764.362" type="curve"/>
			<point x="200.079" y="749.998"/>
			<point x="104.353" y="628.463"/>
			<point x="104.353" y="593.819" type="curve" smooth="yes"/>
			<point x="104.353" y="540.485"/>
			<point x="174.25" y="356.194"/>
			<point x="239.551" y="246.069" type="curve" smooth="yes"/>
			<point x="286.206" y="167.388"/>
			<point x="386.022" y="92.303"/>
		</contour>
		<contour>
			<point x="225.7" y="-11" type="curve" smooth="yes"/>
			<point x="341.289" y="-11"/>
			<point x="423.555" y="73.582"/>
			<point x="457.36" y="105.828" type="curve" smooth="yes"/>
			<point x="500.325" y="146.812"/>
			<point x="561.207" y="281.368"/>
			<point x="561.207" y="361.946" type="curve" smooth="yes"/>
			<point x="561.207" y="378.082"/>
			<point x="532.083" y="430.279"/>
			<point x="522.521" y="451.529" type="curve"/>
			<point x="428.101" y="438.868" type="line"/>
			<point x="463.515" y="334.42"/>
			<point x="431.622" y="174.195"/>
			<point x="404.036" y="148.422" type="curve" smooth="yes"/>
			<point x="369.226" y="115.899"/>
			<point x="331.946" y="73"/>
			<point x="256.132" y="73" type="curve" smooth="yes"/>
			<point x="199.225" y="73"/>
			<point x="161.26" y="133.971"/>
			<point x="161.26" y="216.859" type="curve" smooth="yes"/>
			<point x="161.26" y="352.928"/>
			<point x="187.771" y="398.917"/>
			<point x="259.343" y="401.922" type="curve" smooth="yes"/>
			<point x="616.583" y="416.922" type="line"/>
			<point x="616.583" y="510.922" type="line"/>
			<point x="452.163" y="506.858" type="line"/>
			<point x="380.708" y="506.858"/>
			<point x="282.684" y="472.631"/>
			<point x="241.317" y="459.991" type="curve" smooth="yes"/>
			<point x="91.456" y="414.195"/>
			<point x="34.72" y="313.442"/>
			<point x="34.72" y="196.401" type="curve" smooth="yes"/>
			<point x="34.72" y="75"/>
			<point x="140.67" y="-11"/>
		</contour>
	</outline>
</glyph>
<glyph name="slash" format="2">
	<advance width="497.68"/>
	<unicode hex="002F"/>
	<outline>
		<contour>
			<point x="19.9962" y="-86.77949" type="curve"/>
			<point x="173.00157" y="-86.77949" type="line"/>
			<point x="477.68244" y="785.32144" type="line"/>
			<point x="474.48371" y="790.72674"/>
			<point x="441.23742" y="814.63413"/>
			<point x="430.95256" y="818.29247" type="curve" smooth="yes"/>
			<point x="420.91905" y="821.86107"/>
			<point x="324.40999" y="814.98044"/>
			<point x="317.30474" y="812.58725" type="curve"/>
			<point x="315.38823" y="779.80408"/>
			<point x="298.02773" y="694.02588"/>
			<point x="292.03159" y="667.74733" type="curve"/>
			<point x="66.14071" y="15.54" type="line"/>
			<point x="55.20278" y="-7.444"/>
			<point x="29.54551" y="-68.22842"/>
		</contour>
	</outline>
</glyph>
<glyph name="C" format="2">
	<advance width="602.27"/>
	<unicode hex="0043"/>
	<outline>
		<contour>
			<point x="54.996" y="365" type="curve" smooth="yes"/>
			<point x="54.996" y="631.384"/>
			<point x="216.094" y="805.462"/>
			<point x="384.526" y="805.462" type="curve" smooth="yes"/>
			<point x="433.799" y="805.462"/>
			<point x="484.861" y="794.601"/>
			<point x="506.789" y="785.478" type="curve"/>
			<point x="514.168" y="775.598"/>
			<point x="532.867" y="741.561"/>
			<point x="532.867" y="733.683" type="curve" smooth="yes"/>
			<point x="532.867" y="725.683"/>
			<point x="484.425" y="660.866"/>
			<point x="476.174" y="652.571" type="curve"/>
			<point x="454.061" y="661.866"/>
			<point x="419.867" y="683.535"/>
			<point x="361.574" y="683.535" type="curve" smooth="yes"/>
			<point x="293.897" y="683.535"/>
			<point x="239.547" y="618.342"/>
			<point x="222.816" y="592.52" type="curve"/>
			<point x="214.555" y="577.441"/>
			<point x="196.996" y="526.09"/>
			<point x="196.996" y="393.491" type="curve" smooth="yes"/>
			<point x="196.996" y="222.957"/>
			<point x="234.369" y="101.339"/>
			<point x="354.327" y="101.339" type="curve" smooth="yes"/>
			<point x="416.672" y="101.339"/>
			<point x="479.963" y="133.17"/>
			<point x="511.267" y="148.17" type="curve"/>
			<point x="557.265" y="76" type="line"/>
			<point x="508.69" y="32.279"/>
			<point x="435.04" y="-11"/>
			<point x="338.84" y="-11" type="curve" smooth="yes"/>
			<point x="221.693" y="-11"/>
			<point x="54.996" y="92"/>
		</contour>
	</outline>
</glyph>
<glyph name="E" format="2">
	<advance width="552"/>
	<unicode hex="0045"/>
	<anchor x="276" y="800" name="top"/>
	<anchor x="276" y="0" name="bottom"/>
	<anchor x="497" y="10" name="ogonek"/>
	<anchor x="20" y="800" name="topleft"/>
	<outline>
		<contour>
			<point x="178.003" y="0" type="line"/>
			<point x="512.003" y="0" type="line"/>
			<point x="512.003" y="108" type="line"/>
			<point x="453.85" y="100.363"/>
			<point x="390.101" y="92"/>
			<point x="178.003" y="92" type="curve"/>
		</contour>
		<contour>
			<point x="197.003" y="358" type="line"/>
			<point x="458.003" y="358" type="line"/>
			<point x="458.003" y="452" type="line"/>
			<point x="367.85" y="444.602"/>
			<point x="287.13" y="443.622"/>
			<point x="197.003" y="452" type="curve"/>
		</contour>
		<contour>
			<point x="62.86" y="0" type="curve"/>
			<point x="210.86" y="0" type="line"/>
			<point x="210.86" y="744.941" type="line"/>
			<point x="173.629" y="711.471" type="line"/>
			<point x="294.534" y="711.471"/>
			<point x="437.062" y="708.937"/>
			<point x="493.779" y="704.937" type="curve"/>
			<point x="493.779" y="799.937" type="line"/>
			<point x="158.264" y="800.438" type="line" smooth="yes"/>
			<point x="138.995" y="800.467"/>
			<point x="95.309" y="787.751"/>
			<point x="60.003" y="779.471" type="curve"/>
			<point x="66.781" y="725.472"/>
			<point x="71.355" y="645.948"/>
			<point x="75.905" y="588.414" type="curve"/>
			<point x="75.915" y="153.611" type="line"/>
			<point x="75.915" y="128.688"/>
			<point x="68.508" y="41.229"/>
		</contour>
	</outline>
</glyph>
<glyph name="G" format="2">
	<advance width="632.13"/>
	<unicode hex="0047"/>
	<outline>
		<contour>
			<point x="328" y="301" type="line"/>
			<point x="328" y="395" type="line"/>
			<point x="413.465" y="388.33"/>
			<point x="539.426" y="389.155"/>
			<point x="587.133" y="395" type="curve"/>
			<point x="587.133" y="301" type="line"/>
		</contour>
		<contour>
			<point x="54.996" y="365" type="curve" smooth="yes"/>
			<point x="54.996" y="636.384"/>
			<point x="216.094" y="805.462"/>
			<point x="389.526" y="805.462" type="curve" smooth="yes"/>
			<point x="448.799" y="805.462"/>
			<point x="489.861" y="794.601"/>
			<point x="511.789" y="785.478" type="curve"/>
			<point x="519.168" y="775.598"/>
			<point x="537.867" y="741.561"/>
			<point x="537.867" y="733.683" type="curve" smooth="yes"/>
			<point x="537.867" y="725.683"/>
			<point x="489.425" y="660.866"/>
			<point x="481.174" y="652.571" type="curve"/>
			<point x="459.061" y="661.866"/>
			<point x="422" y="683.535"/>
			<point x="353.967" y="683.535" type="curve" smooth="yes"/>
			<point x="279.72" y="683.535"/>
			<point x="229.383" y="611.224"/>
			<point x="219.816" y="595.52" type="curve"/>
			<point x="212.555" y="580.441"/>
			<point x="197.996" y="531.09"/>
			<point x="197.996" y="393.491" type="curve" smooth="yes"/>
			<point x="197.996" y="222.957"/>
			<point x="234.22" y="103.673"/>
			<point x="365" y="102" type="curve" smooth="yes"/>
			<point x="416.672" y="101.339"/>
			<point x="454.036" y="120.852"/>
			<point x="474.051" y="144.616" type="curve"/>
			<point x="476.79" y="224.026"/>
			<point x="471.136" y="289.294"/>
			<point x="466.133" y="380.174" type="curve"/>
			<point x="587.133" y="301" type="line"/>
			<point x="587.133" y="139.812" type="line"/>
			<point x="582.133" y="120.695"/>
			<point x="555.408" y="73.385"/>
			<point x="547.465" y="63.721" type="curve"/>
			<point x="534.762" y="52.547"/>
			<point x="449.806" y="-11"/>
			<point x="351.955" y="-11" type="curve" smooth="yes"/>
			<point x="183.672" y="-11"/>
			<point x="54.996" y="124.284"/>
		</contour>
	</outline>
</glyph>
<glyph name="H" format="2">
	<advance width="642.78"/>
	<unicode hex="0048"/>
	<guideline x="25.86" y="640" angle="0"/>
	<guideline x="53.86" y="0" angle="0"/>
	<guideline x="180.86" y="0" angle="0"/>
	<guideline x="25.86" y="688" angle="0"/>
	<guideline x="68.86" y="0" angle="0"/>
	<outline>
		<contour>
			<point x="52.86" y="0" type="curve"/>
			<point x="200.86" y="0" type="line"/>
			<point x="200.476" y="789.373" type="line"/>
			<point x="195.034" y="791.694"/>
			<point x="159.205" y="800.453"/>
			<point x="148.289" y="800.373" type="curve" smooth="yes"/>
			<point x="137.639" y="800.295"/>
			<point x="61.739" y="783.28"/>
			<point x="50.003" y="779.471" type="curve"/>
			<point x="56.781" y="725.472"/>
			<point x="61.355" y="645.948"/>
			<point x="65.905" y="588.414" type="curve"/>
			<point x="65.915" y="153.611" type="line"/>
			<point x="65.915" y="128.688"/>
			<point x="58.508" y="41.229"/>
		</contour>
		<contour>
			<point x="165.003" y="341" type="line"/>
			<point x="475.003" y="341" type="line"/>
			<point x="475.003" y="435" type="line"/>
			<point x="384.85" y="427.602"/>
			<point x="255.13" y="426.622"/>
			<point x="165.003" y="435" type="curve"/>
		</contour>
		<contour>
			<point x="589.92" y="0" type="line"/>
			<point x="584.272" y="41.229"/>
			<point x="576.865" y="128.688"/>
			<point x="576.865" y="153.611" type="curve"/>
			<point x="576.875" y="588.414" type="line"/>
			<point x="581.425" y="645.948"/>
			<point x="585.999" y="735.472"/>
			<point x="592.777" y="789.471" type="curve"/>
			<point x="587.076" y="791.694"/>
			<point x="551.141" y="800.295"/>
			<point x="540.491" y="800.373" type="curve" smooth="yes"/>
			<point x="529.575" y="800.453"/>
			<point x="447.746" y="781.694"/>
			<point x="442.304" y="779.373" type="curve"/>
			<point x="441.92" y="0" type="line"/>
		</contour>
	</outline>
</glyph>
<glyph name="I" format="2">
	<advance width="278.86"/>
	<unicode hex="0049"/>
	<anchor x="98.4525" y="800" name="top"/>
	<anchor x="139" y="0" name="bottom"/>
	<anchor x="251" y="10" name="ogonek"/>
	<anchor x="20" y="800" name="topleft"/>
	<outline>
		<contour>
			<point x="67.86" y="0" type="curve"/>
			<point x="213.86" y="0" type="line"/>
			<point x="213.476" y="789.373" type="line"/>
			<point x="208.034" y="791.694"/>
			<point x="172.205" y="800.453"/>
			<point x="161.289" y="800.373" type="curve" smooth="yes"/>
			<point x="150.639" y="800.295"/>
			<point x="76.739" y="783.28"/>
			<point x="65.003" y="779.471" type="curve"/>
			<point x="71.781" y="725.472"/>
			<point x="76.355" y="645.948"/>
			<point x="80.905" y="588.414" type="curve"/>
			<point x="80.915" y="153.611" type="line"/>
			<point x="80.915" y="128.688"/>
			<point x="73.508" y="41.229"/>
		</contour>
	</outline>
</glyph>
<glyph name="M" format="2">
	<advance width="842.69"/>
	<unicode hex="004D"/>
	<guideline x="517.36" y="788.34" angle="0"/>
	<outline>
		<contour>
			<point x="199.502" y="546.234" type="curve"/>
			<point x="185" y="632" type="line"/>
			<point x="174" y="0" type="line"/>
			<point x="50" y="0" type="line"/>
			<point x="53.648" y="41.229"/>
			<point x="61.055" y="122.99609"/>
			<point x="63.055" y="153.611" type="curve"/>
			<point x="62.045" y="588.414" type="line"/>
			<point x="62.045" y="678.60417"/>
			<point x="62.921" y="725.472"/>
			<point x="60.143" y="779.471" type="curve"/>
			<point x="74.448" y="782.093"/>
			<point x="168.43244" y="800"/>
			<point x="177" y="800" type="curve" smooth="yes"/>
			<point x="186.89367" y="800"/>
			<point x="246.457" y="790.905"/>
			<point x="258.575" y="788.344" type="curve"/>
			<point x="447.45" y="186.638" type="line"/>
			<point x="414.3" y="172.638" type="line"/>
			<point x="590.563" y="784.861" type="line"/>
			<point x="602.681" y="787.422"/>
			<point x="702.42398" y="800"/>
			<point x="713.313" y="800" type="curve" smooth="yes"/>
			<point x="724.99448" y="800"/>
			<point x="764.714" y="784.093"/>
			<point x="778.019" y="779.471" type="curve"/>
			<point x="774.241" y="725.472"/>
			<point x="777.642" y="680.23698"/>
			<point x="777.642" y="588.414" type="curve"/>
			<point x="777.632" y="153.611" type="line"/>
			<point x="778.632" y="128.688"/>
			<point x="787.04" y="41.229"/>
			<point x="792.688" y="0" type="curve"/>
			<point x="642.838" y="0" type="line"/>
			<point x="643.838" y="632" type="line"/>
			<point x="622.336" y="542.234" type="line"/>
			<point x="499.478" y="105.613" type="line"/>
			<point x="490.34375" y="98.81543"/>
			<point x="449.56934" y="75.65625"/>
			<point x="436.003" y="71" type="curve"/>
			<point x="421.533" y="72"/>
			<point x="352.02" y="84.988"/>
			<point x="337.233" y="90.073" type="curve"/>
			<point x="332.43139" y="120.789"/>
			<point x="205.55136" y="519.088"/>
		</contour>
	</outline>
</glyph>
<glyph name="N" format="2">
	<advance width="677.86"/>
	<unicode hex="004E"/>
	<anchor x="360.04322" y="794.55492" name="top"/>
	<anchor x="339" y="0" name="bottom"/>
	<outline>
		<contour>
			<point x="618.683" y="0" type="line"/>
			<point x="613.035" y="41.229"/>
			<point x="608.627" y="128.688"/>
			<point x="608.627" y="153.611" type="curve"/>
			<point x="608.637" y="588.414" type="line"/>
			<point x="613.187" y="645.948"/>
			<point x="621.086" y="737.482"/>
			<point x="627.864" y="791.481" type="curve"/>
			<point x="623.01" y="793.055"/>
			<point x="597.182" y="800.44"/>
			<point x="586.265" y="800.373" type="curve" smooth="yes"/>
			<point x="573.615" y="800.295"/>
			<point x="502.028" y="788.175"/>
			<point x="494.986" y="786.061" type="curve"/>
			<point x="495.86" y="191" type="line"/>
			<point x="473.264" y="267.148" type="line"/>
			<point x="396.466" y="403.922"/>
			<point x="243.435" y="795.317"/>
			<point x="243.435" y="795.317" type="curve"/>
			<point x="234.317" y="795.878"/>
			<point x="164.703" y="800"/>
			<point x="152.86" y="800" type="curve" smooth="yes"/>
			<point x="146.351" y="800"/>
			<point x="63.308" y="783.093"/>
			<point x="50.003" y="779.471" type="curve"/>
			<point x="56.781" y="725.472"/>
			<point x="61.355" y="645.948"/>
			<point x="65.905" y="588.414" type="curve"/>
			<point x="65.915" y="153.611" type="line"/>
			<point x="65.915" y="128.688"/>
			<point x="58.508" y="41.229"/>
			<point x="52.86" y="0" type="curve"/>
			<point x="177.86" y="0" type="line"/>
			<point x="178.86" y="622" type="line"/>
			<point x="203.362" y="546.234" type="line"/>
			<point x="438.86" y="0" type="line"/>
		</contour>
	</outline>
</glyph>
<glyph name="O" format="2">
	<advance width="688"/>
	<unicode hex="004F"/>
	<anchor x="344" y="800" name="top"/>
	<anchor x="344" y="0" name="bottom"/>
	<anchor x="344" y="400" name="center"/>
	<anchor x="668" y="800" name="topright"/>
	<anchor x="619" y="10" name="ogonek"/>
	<anchor x="20" y="800" name="topleft"/>
	<outline>
		<contour>
			<point x="340" y="-11" type="curve" smooth="yes"/>
			<point x="475.758" y="-11"/>
			<point x="633" y="99"/>
			<point x="633" y="439" type="curve" smooth="yes"/>
			<point x="633" y="644"/>
			<point x="541" y="806"/>
			<point x="354" y="806" type="curve" smooth="yes"/>
			<point x="228" y="806"/>
			<point x="55" y="690.234"/>
			<point x="55" y="378.719" type="curve" smooth="yes"/>
			<point x="55" y="153"/>
			<point x="163" y="-11"/>
		</contour>
		<contour>
			<point x="197" y="400" type="curve" smooth="yes"/>
			<point x="197" y="483"/>
			<point x="204.869" y="573.683"/>
			<point x="215" y="601" type="curve"/>
			<point x="245" y="649"/>
			<point x="295" y="693"/>
			<point x="350.383" y="693" type="curve" smooth="yes"/>
			<point x="430.733" y="693"/>
			<point x="491" y="623"/>
			<point x="491" y="417.247" type="curve" smooth="yes"/>
			<point x="491" y="292.95"/>
			<point x="483.778" y="223.568"/>
			<point x="478" y="196.07" type="curve"/>
			<point x="456" y="146.07"/>
			<point x="412.996" y="102"/>
			<point x="357" y="102" type="curve" smooth="yes"/>
			<point x="276.902" y="102"/>
			<point x="197" y="136"/>
		</contour>
	</outline>
</glyph>
<glyph name="P" format="2">
	<advance width="602.56"/>
	<unicode hex="0050"/>
	<guideline x="10.86" y="0" angle="0"/>
	<guideline x="-20.14" y="535" angle="0"/>
	<outline>
		<contour>
			<point x="67.86" y="0" type="curve"/>
			<point x="215.86" y="0" type="line"/>
			<point x="215.86" y="721.658" type="line"/>
			<point x="192.443" y="695.542" type="line"/>
			<point x="209.175" y="696.946"/>
			<point x="257.985" y="701.271"/>
			<point x="292.452" y="701.271" type="curve" smooth="yes"/>
			<point x="383.584" y="701.271"/>
			<point x="420.878" y="633.948"/>
			<point x="420.878" y="541" type="curve" smooth="yes"/>
			<point x="420.878" y="380.76"/>
			<point x="392.969" y="329.137"/>
			<point x="270.739" y="329.137" type="curve" smooth="yes"/>
			<point x="244.375" y="329.137"/>
			<point x="206.692" y="330.715"/>
			<point x="186.083" y="332.807" type="curve"/>
			<point x="153.396" y="271.265" type="line"/>
			<point x="190.387" y="260.628"/>
			<point x="313.835" y="235.024"/>
			<point x="360.798" y="235.024" type="curve" smooth="yes"/>
			<point x="446.498" y="235.024"/>
			<point x="562.56" y="336.993"/>
			<point x="562.56" y="542.132" type="curve" smooth="yes"/>
			<point x="562.56" y="645.792"/>
			<point x="488.305" y="765.146"/>
			<point x="428.02" y="781.128" type="curve" smooth="yes"/>
			<point x="376.088" y="794.897"/>
			<point x="316.873" y="801.152"/>
			<point x="213.579" y="801.152" type="curve" smooth="yes"/>
			<point x="180.08" y="801.152"/>
			<point x="109.243" y="790.17"/>
			<point x="65.003" y="783.466" type="curve"/>
			<point x="71.781" y="729.467"/>
			<point x="76.355" y="645.948"/>
			<point x="80.905" y="588.414" type="curve"/>
			<point x="80.915" y="153.611" type="line"/>
			<point x="80.915" y="128.688"/>
			<point x="73.508" y="41.229"/>
		</contour>
	</outline>
</glyph>
<glyph name="Q" format="2">
	<advance width="719"/>
	<unicode hex="0051"/>
	<guideline x="669" y="345.88" angle="270"/>
	<outline>
		<contour>
			<point x="587.374" y="-174.16" type="curve"/>
			<point x="590.76" y="-173.031"/>
			<point x="638.524" y="-156.1"/>
			<point x="644.168" y="-151.585" type="curve" smooth="yes"/>
			<point x="652.069" y="-143.684"/>
			<point x="669" y="-52.256"/>
			<point x="669" y="-43.226" type="curve"/>
			<point x="604.755" y="-36.224"/>
			<point x="526.805" y="-26.361"/>
			<point x="466.025" y="-6.664" type="curve"/>
			<point x="342" y="16.001" type="line"/>
			<point x="289" y="0" type="line"/>
			<point x="376.022" y="-52.114"/>
			<point x="493.494" y="-124.084"/>
		</contour>
		<contour>
			<point x="340" y="-11" type="curve" smooth="yes"/>
			<point x="475.758" y="-11"/>
			<point x="633" y="102"/>
			<point x="633" y="442" type="curve" smooth="yes"/>
			<point x="633" y="650"/>
			<point x="541" y="812"/>
			<point x="354" y="812" type="curve" smooth="yes"/>
			<point x="228" y="812"/>
			<point x="55" y="678"/>
			<point x="55" y="358" type="curve" smooth="yes"/>
			<point x="55" y="156"/>
			<point x="163" y="-11"/>
		</contour>
		<contour>
			<point x="197" y="403" type="curve" smooth="yes"/>
			<point x="197" y="486"/>
			<point x="204.869" y="579.683"/>
			<point x="215" y="607" type="curve"/>
			<point x="245" y="655"/>
			<point x="298" y="699"/>
			<point x="350.383" y="699" type="curve" smooth="yes"/>
			<point x="430.733" y="699"/>
			<point x="491" y="629"/>
			<point x="491" y="420.247" type="curve" smooth="yes"/>
			<point x="491" y="295.95"/>
			<point x="483.778" y="226.568"/>
			<point x="478" y="196.07" type="curve"/>
			<point x="456" y="146.07"/>
			<point x="404.996" y="102"/>
			<point x="357" y="102" type="curve" smooth="yes"/>
			<point x="276.902" y="102"/>
			<point x="197" y="139"/>
		</contour>
	</outline>
</glyph>
<glyph name="U" format="2">
	<advance width="655.83"/>
	<unicode hex="0055"/>
	<anchor x="326.13682" y="800" name="top"/>
	<anchor x="328" y="0" name="bottom"/>
	<anchor x="590" y="10" name="ogonek"/>
	<anchor x="635.83" y="800" name="topright"/>
	<outline>
		<contour>
			<point x="250.09" y="-11" type="curve" smooth="yes"/>
			<point x="281.979" y="-11"/>
			<point x="482.003" y="108"/>
			<point x="499.176" y="120.799" type="curve"/>
			<point x="472.904" y="172.646" type="line"/>
			<point x="466.003" y="164.432"/>
			<point x="318.86" y="101"/>
			<point x="271.979" y="101" type="curve" smooth="yes"/>
			<point x="245.547" y="101"/>
			<point x="215.147" y="129.879"/>
			<point x="215.16" y="147" type="curve" smooth="yes"/>
			<point x="215.67" y="788.875" type="line"/>
			<point x="211.816" y="791.449"/>
			<point x="173.709" y="800.44"/>
			<point x="162.792" y="800.373" type="curve" smooth="yes"/>
			<point x="150.142" y="800.295"/>
			<point x="72.044" y="781.585"/>
			<point x="65.002" y="779.471" type="curve"/>
			<point x="71.78" y="725.472"/>
			<point x="75.354" y="645.948"/>
			<point x="79.904" y="588.414" type="curve"/>
			<point x="79.914" y="199.431" type="line"/>
			<point x="76.16" y="87" type="line"/>
			<point x="76.16" y="75.797"/>
			<point x="109.317" y="15.067"/>
			<point x="118.09" y="9" type="curve" smooth="yes"/>
			<point x="126.657" y="3.075"/>
			<point x="230.552" y="-11"/>
		</contour>
		<contour>
			<point x="587.052" y="0" type="line"/>
			<point x="581.404" y="41.229"/>
			<point x="573.997" y="128.688"/>
			<point x="573.997" y="153.611" type="curve"/>
			<point x="574.007" y="588.414" type="line"/>
			<point x="577.557" y="645.948"/>
			<point x="584.049" y="731.72"/>
			<point x="590.827" y="785.719" type="curve"/>
			<point x="586.973" y="788.293"/>
			<point x="546.102" y="800.44"/>
			<point x="535.185" y="800.373" type="curve" smooth="yes"/>
			<point x="522.535" y="800.295"/>
			<point x="446.685" y="783.069"/>
			<point x="438.827" y="780.955" type="curve"/>
			<point x="439.164" y="0.08" type="line"/>
		</contour>
	</outline>
</glyph>
<glyph name="V" format="2">
	<advance width="636.11"/>
	<unicode hex="0056"/>
	<outline>
		<contour>
			<point x="421.49" y="780.955" type="curve"/>
			<point x="439.479" y="689.33"/>
			<point x="435.693" y="503.486"/>
			<point x="435.693" y="404.828" type="curve" smooth="yes"/>
			<point x="435.693" y="314.934"/>
			<point x="435.479" y="78.593"/>
			<point x="360.7" y="32.203" type="curve"/>
			<point x="445.132" y="53.853"/>
			<point x="543.621" y="131.578"/>
			<point x="552.692" y="173.212" type="curve"/>
			<point x="555.799" y="199.553"/>
			<point x="565.206" y="267.775"/>
			<point x="569.222" y="349.814" type="curve"/>
			<point x="573.19" y="593.056" type="line"/>
			<point x="576.344" y="663.429"/>
			<point x="580.534" y="755.31"/>
			<point x="581.109" y="789.373" type="curve"/>
			<point x="575.687" y="791.694"/>
			<point x="538.934" y="800.453"/>
			<point x="528.018" y="800.373" type="curve" smooth="yes"/>
			<point x="517.367" y="800.295"/>
			<point x="433.26" y="784.764"/>
		</contour>
		<contour>
			<point x="55.001" y="780.955" type="curve"/>
			<point x="61.52" y="757.609"/>
			<point x="73.074" y="669.142"/>
			<point x="76.724" y="587.24" type="curve"/>
			<point x="80.346" y="366.809" type="line"/>
			<point x="80.346" y="339.39"/>
			<point x="93.071" y="170.861"/>
			<point x="105.306" y="138.689" type="curve"/>
			<point x="151.009" y="73.853"/>
			<point x="295.019" y="-10.806"/>
			<point x="326.887" y="-10.806" type="curve" smooth="yes"/>
			<point x="352.173" y="-10.806"/>
			<point x="491.982" y="89.415"/>
			<point x="516.36" y="122.116" type="curve"/>
			<point x="457.804" y="157.729" type="line"/>
			<point x="443.87" y="135.77"/>
			<point x="381.767" y="101.759"/>
			<point x="336.49" y="101.759" type="curve" smooth="yes"/>
			<point x="303.391" y="101.759"/>
			<point x="218.946" y="172.63"/>
			<point x="218.331" y="205.633" type="curve" smooth="yes"/>
			<point x="207.546" y="789.373" type="line"/>
			<point x="202.104" y="791.694"/>
			<point x="166.275" y="800.453"/>
			<point x="155.359" y="800.373" type="curve" smooth="yes"/>
			<point x="144.709" y="800.295"/>
			<point x="66.737" y="784.764"/>
		</contour>
	</outline>
</glyph>
<glyph name="W" format="2">
	<advance width="988.43"/>
	<unicode hex="0057"/>
	<outline>
		<contour>
			<point x="773.813" y="780.955" type="curve"/>
			<point x="792.802" y="709.33"/>
			<point x="784.016" y="578.844"/>
			<point x="784.016" y="404.828" type="curve" smooth="yes"/>
			<point x="784.016" y="271.416"/>
			<point x="775.805" y="183.004"/>
			<point x="761.019" y="124.49" type="curve"/>
			<point x="740.213" y="114.257"/>
			<point x="696.96" y="100.759"/>
			<point x="676.813" y="100.759" type="curve" smooth="yes"/>
			<point x="664.258" y="100.759"/>
			<point x="604.9" y="134.273"/>
			<point x="541.926" y="225.168" type="curve"/>
			<point x="463.629" y="128.689" type="line"/>
			<point x="519.332" y="63.853"/>
			<point x="644.342" y="-10.806"/>
			<point x="672.21" y="-10.806" type="curve" smooth="yes"/>
			<point x="694.093" y="-10.806"/>
			<point x="789.683" y="51.958"/>
			<point x="829.298" y="90.965" type="curve"/>
			<point x="868.452" y="121.835"/>
			<point x="893.918" y="154.503"/>
			<point x="899.878" y="171.803" type="curve"/>
			<point x="905.942" y="197.777"/>
			<point x="917.514" y="303.464"/>
			<point x="917.514" y="356.128" type="curve"/>
			<point x="922.855" y="620.596" type="line"/>
			<point x="922.855" y="673.917"/>
			<point x="930.605" y="737.476"/>
			<point x="933.432" y="789.373" type="curve"/>
			<point x="928.01" y="791.694"/>
			<point x="887.257" y="800.453"/>
			<point x="876.341" y="800.373" type="curve" smooth="yes"/>
			<point x="865.69" y="800.295"/>
			<point x="785.583" y="784.764"/>
		</contour>
		<contour>
			<point x="418.49" y="780.955" type="curve"/>
			<point x="429.479" y="729.33"/>
			<point x="431.693" y="576.931"/>
			<point x="431.693" y="472.915" type="curve" smooth="yes"/>
			<point x="431.693" y="359.503"/>
			<point x="425.482" y="181.004"/>
			<point x="410.696" y="122.49" type="curve"/>
			<point x="389.89" y="112.257"/>
			<point x="358.637" y="100.759"/>
			<point x="334.49" y="100.759" type="curve" smooth="yes"/>
			<point x="313.087" y="100.759"/>
			<point x="218.756" y="178.86"/>
			<point x="218.331" y="198.354" type="curve" smooth="yes"/>
			<point x="205.546" y="789.373" type="line"/>
			<point x="200.104" y="791.694"/>
			<point x="165.275" y="800.453"/>
			<point x="154.359" y="800.373" type="curve" smooth="yes"/>
			<point x="143.709" y="800.295"/>
			<point x="66.737" y="784.764"/>
			<point x="55.001" y="780.955" type="curve"/>
			<point x="61.24" y="758.613"/>
			<point x="68.595" y="670.866"/>
			<point x="72.243" y="613.789" type="curve"/>
			<point x="80.175" y="369.916" type="line"/>
			<point x="85.686" y="283.631"/>
			<point x="92.533" y="164.771"/>
			<point x="106.306" y="138.689" type="curve"/>
			<point x="152.009" y="73.853"/>
			<point x="302.019" y="-10.806"/>
			<point x="328.887" y="-10.806" type="curve" smooth="yes"/>
			<point x="350.77" y="-10.806"/>
			<point x="438.36" y="51.958"/>
			<point x="481.975" y="90.965" type="curve"/>
			<point x="525.129" y="121.835"/>
			<point x="550.731" y="155.912"/>
			<point x="555.692" y="173.212" type="curve"/>
			<point x="559.692" y="190.09"/>
			<point x="565.071" y="185.936"/>
			<point x="565.071" y="358.416" type="curve"/>
			<point x="568.222" y="626.265" type="line"/>
			<point x="568.988" y="689.284"/>
			<point x="575.378" y="733.221"/>
			<point x="576.109" y="789.373" type="curve"/>
			<point x="570.687" y="791.694"/>
			<point x="533.934" y="800.453"/>
			<point x="523.018" y="800.373" type="curve" smooth="yes"/>
			<point x="512.367" y="800.295"/>
			<point x="443.26" y="788.764"/>
		</contour>
	</outline>
</glyph>
<glyph name="a" format="2">
	<advance width="552"/>
	<unicode hex="0061"/>
	<anchor x="276" y="600" name="top"/>
	<anchor x="276" y="0" name="bottom"/>
	<anchor x="497" y="10" name="ogonek"/>
	<outline>
		<contour>
			<point x="491.04" y="502" type="curve"/>
			<point x="486.639" y="522.186"/>
			<point x="442.988" y="570.506"/>
			<point x="432.003" y="577" type="curve" smooth="yes"/>
			<point x="410.764" y="589.557"/>
			<point x="280.003" y="600"/>
			<point x="263.003" y="600" type="curve" smooth="yes"/>
			<point x="237.003" y="600"/>
			<point x="123.244" y="551.562"/>
			<point x="61.003" y="508" type="curve"/>
			<point x="103.955" y="440.505" type="line"/>
			<point x="139.973" y="463.894"/>
			<point x="221.003" y="513"/>
			<point x="276.003" y="513" type="curve" smooth="yes"/>
			<point x="311.042" y="513"/>
			<point x="354.003" y="481.8"/>
			<point x="354.003" y="433.73" type="curve" smooth="yes"/>
			<point x="354.003" y="100.1" type="line"/>
			<point x="369.003" y="69.734"/>
			<point x="389.003" y="36.367"/>
			<point x="414.003" y="0" type="curve"/>
			<point x="497.003" y="0" type="line"/>
			<point x="494.908" y="17.025"/>
			<point x="487.161" y="93.17"/>
			<point x="486.785" y="116.283" type="curve"/>
			<point x="486.79" y="397.791" type="line"/>
			<point x="489.086" y="438.815"/>
			<point x="488.539" y="470.879"/>
		</contour>
		<contour>
			<point x="221.194" y="-11" type="curve" smooth="yes"/>
			<point x="273.806" y="-11"/>
			<point x="369.582" y="54.016"/>
			<point x="415.582" y="84.016" type="curve"/>
			<point x="390.582" y="143.273" type="line"/>
			<point x="362.414" y="121.273"/>
			<point x="287.907" y="73"/>
			<point x="247.003" y="73" type="curve" smooth="yes"/>
			<point x="193.003" y="73"/>
			<point x="181.003" y="134.51"/>
			<point x="181.003" y="177.042" type="curve" smooth="yes"/>
			<point x="181.003" y="232.51"/>
			<point x="218.194" y="271.168"/>
			<point x="262.141" y="271.168" type="curve" smooth="yes"/>
			<point x="291.907" y="271.168"/>
			<point x="362.414" y="253.345"/>
			<point x="380.74" y="243.372" type="curve"/>
			<point x="387.919" y="310" type="line"/>
			<point x="365.101" y="318.9"/>
			<point x="278.155" y="341"/>
			<point x="242.141" y="341" type="curve" smooth="yes"/>
			<point x="92.31" y="341"/>
			<point x="50.003" y="246.114"/>
			<point x="50.003" y="158" type="curve" smooth="yes"/>
			<point x="50.003" y="66"/>
			<point x="119.603" y="-11"/>
		</contour>
	</outline>
</glyph>
<glyph name="c" format="2">
	<advance width="517"/>
	<unicode hex="0063"/>
	<outline>
		<contour>
			<point x="277.181" y="-11" type="curve" smooth="yes"/>
			<point x="339.467" y="-11"/>
			<point x="412.089" y="4.804"/>
			<point x="487" y="57" type="curve"/>
			<point x="455" y="121" type="line"/>
			<point x="417.089" y="101.066"/>
			<point x="357.317" y="72.957"/>
			<point x="293.578" y="72.957" type="curve" smooth="yes"/>
			<point x="221.157" y="72.957"/>
			<point x="172.153" y="134.321"/>
			<point x="172.153" y="295.612" type="curve" smooth="yes"/>
			<point x="172.153" y="353.271"/>
			<point x="173.88" y="425.819"/>
			<point x="185.607" y="457.497" type="curve"/>
			<point x="195.526" y="468.98"/>
			<point x="236.383" y="520.104"/>
			<point x="285.403" y="513" type="curve" smooth="yes"/>
			<point x="340.602" y="505"/>
			<point x="389.03" y="473.201"/>
			<point x="403.362" y="472.829" type="curve"/>
			<point x="412.951" y="474.007"/>
			<point x="457.005" y="535.69"/>
			<point x="457.005" y="544.131" type="curve" smooth="yes"/>
			<point x="457.005" y="551.946"/>
			<point x="437.307" y="583.307"/>
			<point x="433.01" y="589.831" type="curve"/>
			<point x="418.951" y="594.333"/>
			<point x="374.249" y="599.957"/>
			<point x="326.874" y="599.957" type="curve" smooth="yes"/>
			<point x="179.28" y="599.957"/>
			<point x="40" y="506.518"/>
			<point x="40" y="258.928" type="curve" smooth="yes"/>
			<point x="40" y="87.666"/>
			<point x="141.573" y="-11"/>
		</contour>
	</outline>
</glyph>
<glyph name="m" format="2">
	<advance width="850.96"/>
	<unicode hex="006D"/>
	<outline>
		<contour>
			<point x="373.39" y="0" type="line"/>
			<point x="499.39" y="0" type="line"/>
			<point x="499.39" y="139.628"/>
			<point x="499.39" y="415.75"/>
			<point x="499.39" y="514.596" type="curve" smooth="yes"/>
			<point x="499.39" y="528.548"/>
			<point x="463.269" y="573.908"/>
			<point x="454.46" y="580" type="curve" smooth="yes"/>
			<point x="445.893" y="585.925"/>
			<point x="358.998" y="600"/>
			<point x="339.46" y="600" type="curve" smooth="yes"/>
			<point x="306.391" y="600"/>
			<point x="180.858" y="519.143"/>
			<point x="163.685" y="506.344" type="curve"/>
			<point x="189.957" y="457.497" type="line"/>
			<point x="196.858" y="465.711"/>
			<point x="264.69" y="503"/>
			<point x="297.571" y="503" type="curve" smooth="yes"/>
			<point x="332.003" y="503"/>
			<point x="373.39" y="472.121"/>
			<point x="373.39" y="457" type="curve" smooth="yes"/>
		</contour>
		<contour>
			<point x="800.18" y="501.968" type="curve"/>
			<point x="800.18" y="514.436"/>
			<point x="761.023" y="573.901"/>
			<point x="752.25" y="579.968" type="curve" smooth="yes"/>
			<point x="743.683" y="585.893"/>
			<point x="657.788" y="599.968"/>
			<point x="638.25" y="599.968" type="curve" smooth="yes"/>
			<point x="605.181" y="599.968"/>
			<point x="479.648" y="519.111"/>
			<point x="462.475" y="506.312" type="curve"/>
			<point x="488.747" y="457.465" type="line"/>
			<point x="495.648" y="464.956"/>
			<point x="563.48" y="502.968"/>
			<point x="596.361" y="502.968" type="curve" smooth="yes"/>
			<point x="630.793" y="502.968"/>
			<point x="664.18" y="472.089"/>
			<point x="664.18" y="456.968" type="curve" smooth="yes"/>
			<point x="664.18" y="-0.032" type="line"/>
			<point x="805.959" y="0" type="line"/>
			<point x="803.864" y="17.025"/>
			<point x="796.301" y="93.138"/>
			<point x="795.925" y="116.251" type="curve"/>
			<point x="795.93" y="397.759" type="line"/>
			<point x="798.226" y="438.783"/>
			<point x="797.679" y="470.847"/>
		</contour>
		<contour>
			<point x="59.422" y="0.413" type="curve"/>
			<point x="202.661" y="0.413" type="line"/>
			<point x="202.846" y="483.132" type="line"/>
			<point x="200.106" y="483" type="line"/>
			<point x="200.335" y="585.925" type="line"/>
			<point x="195.481" y="588.928"/>
			<point x="160.727" y="600"/>
			<point x="149.811" y="599.92" type="curve" smooth="yes"/>
			<point x="140.161" y="599.842"/>
			<point x="50.856" y="563.034"/>
			<point x="44.998" y="556.92" type="curve"/>
			<point x="54.422" y="525.547"/>
			<point x="66.859" y="439.311"/>
			<point x="69.271" y="398.287" type="curve"/>
			<point x="69.273" y="304.451"/>
			<point x="69.274" y="210.615"/>
			<point x="69.276" y="116.779" type="curve"/>
			<point x="69.269" y="93.745"/>
			<point x="61.915" y="17.468"/>
		</contour>
	</outline>
</glyph>
<glyph name="n" format="2">
	<advance width="550.82"/>
	<unicode hex="006E"/>
	<guideline x="60.04" y="299" angle="0"/>
	<anchor x="116.65629" y="600" name="top"/>
	<anchor x="275" y="0" name="bottom"/>
	<outline>
		<contour>
			<point x="500.04" y="502" type="curve"/>
			<point x="500.04" y="514.468"/>
			<point x="460.883" y="573.933"/>
			<point x="452.11" y="580" type="curve" smooth="yes"/>
			<point x="443.543" y="585.925"/>
			<point x="357.648" y="600"/>
			<point x="338.11" y="600" type="curve" smooth="yes"/>
			<point x="305.041" y="600"/>
			<point x="179.508" y="519.143"/>
			<point x="162.335" y="506.344" type="curve"/>
			<point x="188.607" y="457.497" type="line"/>
			<point x="195.508" y="465.711"/>
			<point x="263.34" y="503"/>
			<point x="296.221" y="503" type="curve" smooth="yes"/>
			<point x="330.653" y="503"/>
			<point x="364.04" y="472.121"/>
			<point x="364.04" y="457" type="curve" smooth="yes"/>
			<point x="364.04" y="0" type="line"/>
			<point x="505.819" y="0.032" type="line"/>
			<point x="503.724" y="17.057"/>
			<point x="496.161" y="93.17"/>
			<point x="495.785" y="116.283" type="curve"/>
			<point x="495.79" y="397.791" type="line"/>
			<point x="498.086" y="438.815"/>
			<point x="497.539" y="470.879"/>
		</contour>
		<contour>
			<point x="59.426" y="0.413" type="curve"/>
			<point x="201.665" y="0.413" type="line"/>
			<point x="201.85" y="483.132" type="line"/>
			<point x="199.11" y="483" type="line"/>
			<point x="199.339" y="585.925" type="line"/>
			<point x="194.485" y="588.928"/>
			<point x="159.731" y="600"/>
			<point x="148.815" y="599.92" type="curve" smooth="yes"/>
			<point x="139.165" y="599.842"/>
			<point x="50.86" y="563.034"/>
			<point x="45.002" y="556.92" type="curve"/>
			<point x="54.426" y="525.547"/>
			<point x="66.863" y="439.311"/>
			<point x="69.275" y="398.287" type="curve"/>
			<point x="69.277" y="304.451"/>
			<point x="69.278" y="210.615"/>
			<point x="69.28" y="116.779" type="curve"/>
			<point x="69.273" y="93.745"/>
			<point x="61.919" y="17.468"/>
		</contour>
	</outline>
</glyph>
<glyph name="w" format="2">
	<advance width="820.94"/>
	<unicode hex="0077"/>
	<outline>
		<contour>
			<point x="257.192" y="-10.95" type="curve" smooth="yes"/>
			<point x="353.283" y="-10.95"/>
			<point x="484.919" y="129.7"/>
			<point x="484.962" y="200.363" type="curve" smooth="yes"/>
			<point x="485.184" y="585.034" type="line"/>
			<point x="480.33" y="589.019"/>
			<point x="442.913" y="600.114"/>
			<point x="431.997" y="600.034" type="curve" smooth="yes"/>
			<point x="421.347" y="599.956"/>
			<point x="335.042" y="559.148"/>
			<point x="329.184" y="553.034" type="curve"/>
			<point x="348.909" y="491.5"/>
			<point x="357.445" y="434.395"/>
			<point x="357.445" y="399.793" type="curve" smooth="yes"/>
			<point x="357.445" y="155.186"/>
			<point x="331.922" y="72.957"/>
			<point x="293.483" y="72.957" type="curve" smooth="yes"/>
			<point x="200.32" y="72.957"/>
			<point x="191.545" y="124.501"/>
			<point x="191.62" y="197.213" type="curve" smooth="yes"/>
			<point x="191.997" y="584.996" type="line"/>
			<point x="187.143" y="588.981"/>
			<point x="149.726" y="600.076"/>
			<point x="138.81" y="599.996" type="curve" smooth="yes"/>
			<point x="128.16" y="599.918"/>
			<point x="45.855" y="559.11"/>
			<point x="39.997" y="552.996" type="curve"/>
			<point x="51.555" y="496.525"/>
			<point x="59.552" y="429.703"/>
			<point x="59.625" y="399.402" type="curve" smooth="yes"/>
			<point x="59.817" y="319.239"/>
			<point x="59" y="123.753"/>
			<point x="59" y="92" type="curve"/>
			<point x="89.45" y="54.547"/>
			<point x="202.498" y="-10.95"/>
		</contour>
		<contour>
			<point x="484.381" y="197.213" type="curve"/>
			<point x="379.892" y="107.471" type="line"/>
			<point x="419.342" y="38.44"/>
			<point x="516.299" y="-10.95"/>
			<point x="546.953" y="-10.95" type="curve" smooth="yes"/>
			<point x="653.044" y="-10.95"/>
			<point x="780.68" y="124.7"/>
			<point x="780.723" y="200.363" type="curve" smooth="yes"/>
			<point x="780.945" y="585.034" type="line"/>
			<point x="776.091" y="589.019"/>
			<point x="738.674" y="600.114"/>
			<point x="727.758" y="600.034" type="curve" smooth="yes"/>
			<point x="717.108" y="599.956"/>
			<point x="627.803" y="559.148"/>
			<point x="621.945" y="553.034" type="curve"/>
			<point x="641.67" y="496.563"/>
			<point x="650.206" y="439.574"/>
			<point x="650.206" y="399.793" type="curve" smooth="yes"/>
			<point x="650.206" y="155.186"/>
			<point x="621.683" y="72.957"/>
			<point x="583.244" y="72.957" type="curve" smooth="yes"/>
			<point x="503.812" y="72.957"/>
			<point x="484.306" y="119.595"/>
		</contour>
	</outline>
</glyph>
<glyph name="exclamdown" format="2">
	<advance width="278.92"/>
	<unicode hex="00A1"/>
	<outline>
		<contour>
			<point x="62.675" y="550.647" type="curve" smooth="yes"/>
			<point x="62.675" y="596.071"/>
			<point x="99.475" y="627.894"/>
			<point x="145.795" y="627.894" type="curve" smooth="yes"/>
			<point x="191.701" y="627.894"/>
			<point x="228.916" y="596.071"/>
			<point x="228.916" y="550.647" type="curve" smooth="yes"/>
			<point x="228.916" y="505.223"/>
			<point x="191.701" y="473.401"/>
			<point x="145.795" y="473.401" type="curve" smooth="yes"/>
			<point x="99.555" y="473.401"/>
			<point x="62.675" y="505.223"/>
		</contour>
		<contour>
			<point x="78.085" y="-17" type="curve"/>
			<point x="80.198" y="28.662"/>
			<point x="90.991" y="200.602"/>
			<point x="89.18" y="253" type="curve" smooth="yes"/>
			<point x="88.167" y="282.277"/>
			<point x="77.632" y="306.267"/>
			<point x="78.042" y="324.92" type="curve"/>
			<point x="83.9" y="331.034"/>
			<point x="150.205" y="371.842"/>
			<point x="160.855" y="371.92" type="curve" smooth="yes"/>
			<point x="171.771" y="372"/>
			<point x="209.188" y="360.905"/>
			<point x="214.042" y="356.92" type="curve"/>
			<point x="213.665" y="-215.229" type="line"/>
			<point x="50.002" y="-215.229" type="line"/>
			<point x="60.946" y="-144.997"/>
			<point x="75.407" y="-52.464"/>
		</contour>
	</outline>
</glyph>
<glyph name="questiondown" format="2">
	<advance width="532.95"/>
	<unicode hex="00BF"/>
	<outline>
		<contour>
			<point x="219.024" y="351.656" type="curve"/>
			<point x="240.885" y="232.536" type="line"/>
			<point x="219.024" y="209.07"/>
			<point x="84.943" y="96.004"/>
			<point x="72.782" y="78.745" type="curve"/>
			<point x="62.459" y="58.129"/>
			<point x="55.937" y="-29.656"/>
			<point x="62.89" y="-91.976" type="curve"/>
			<point x="93.742" y="-167.301"/>
			<point x="153.301" y="-225.488"/>
			<point x="252.437" y="-225.488" type="curve" smooth="yes"/>
			<point x="366.717" y="-225.488"/>
			<point x="443.027" y="-163.883"/>
			<point x="487.95" y="-96.819" type="curve"/>
			<point x="409.136" y="-48.43" type="line"/>
			<point x="397.574" y="-63.418"/>
			<point x="339.193" y="-138.309"/>
			<point x="277.595" y="-138.309" type="curve" smooth="yes"/>
			<point x="225.666" y="-138.309"/>
			<point x="193.332" y="-66.718"/>
			<point x="187.353" y="-38.738" type="curve"/>
			<point x="187.353" y="42.313"/>
			<point x="275.641" y="134.602"/>
			<point x="345.879" y="195.033" type="curve"/>
			<point x="354.362" y="240.215"/>
			<point x="359.329" y="311.932"/>
			<point x="359.329" y="354.58" type="curve"/>
			<point x="340.339" y="366.263"/>
			<point x="320.207" y="375.617"/>
			<point x="309.661" y="377.482" type="curve" smooth="yes"/>
			<point x="299.217" y="379.33"/>
			<point x="226.002" y="355.9"/>
		</contour>
		<contour>
			<point x="194.475" y="552.647" type="curve" smooth="yes"/>
			<point x="194.475" y="598.071"/>
			<point x="231.275" y="629.894"/>
			<point x="277.595" y="629.894" type="curve" smooth="yes"/>
			<point x="323.501" y="629.894"/>
			<point x="360.716" y="598.071"/>
			<point x="360.716" y="552.647" type="curve" smooth="yes"/>
			<point x="360.716" y="507.223"/>
			<point x="323.501" y="475.401"/>
			<point x="277.595" y="475.401" type="curve" smooth="yes"/>
			<point x="231.689" y="475.401"/>
			<point x="194.475" y="507.223"/>
		</contour>
	</outline>
</glyph>
<glyph name="tilde" format="2">
	<advance width="468.87"/>
	<unicode hex="02DC"/>
	<anchor x="42.00424" y="600" name="_top"/>
	<outline>
		<contour>
			<point x="448.866" y="758.202" type="curve"/>
			<point x="434.199" y="815" type="line"/>
			<point x="408.456" y="796.28"/>
			<point x="345.14" y="773.638"/>
			<point x="332.654" y="771.646" type="curve"/>
			<point x="317.02" y="767.984"/>
			<point x="261.671" y="807.134"/>
			<point x="211.506" y="818" type="curve"/>
			<point x="176.501" y="814.119"/>
			<point x="142.573" y="806.721"/>
			<point x="122.991" y="803.162" type="curve"/>
			<point x="98.43" y="791.894"/>
			<point x="70.063" y="775.132"/>
			<point x="19.998" y="737.951" type="curve"/>
			<point x="34.671" y="681.153" type="line"/>
			<point x="60.408" y="699.873"/>
			<point x="123.725" y="722.515"/>
			<point x="136.211" y="724.507" type="curve"/>
			<point x="152.283" y="728.169"/>
			<point x="207.591" y="689.019"/>
			<point x="257.358" y="678.153" type="curve"/>
			<point x="286.482" y="680.153"/>
			<point x="330.932" y="684.905"/>
			<point x="345.873" y="693.991" type="curve"/>
			<point x="369.672" y="705.993"/>
			<point x="398.569" y="723.169"/>
		</contour>
	</outline>
</glyph>
<glyph name="quotedblright" format="2">
	<advance width="427.76"/>
	<unicode hex="201D"/>
	<outline>
		<contour>
			<point x="29.998" y="530.629" type="line"/>
			<point x="59.62" y="591.136"/>
			<point x="71.62" y="663.887"/>
			<point x="54.233" y="756.129" type="curve"/>
			<point x="67.883" y="774.211"/>
			<point x="81.178" y="792.293"/>
			<point x="91.626" y="800" type="curve"/>
			<point x="104.13" y="805.347"/>
			<point x="165.437" y="811.611"/>
			<point x="196.705" y="800" type="curve"/>
			<point x="201.782" y="775.949"/>
			<point x="219.557" y="642.395"/>
			<point x="82.662" y="488.114" type="curve"/>
		</contour>
		<contour>
			<point x="227.459" y="530.629" type="line"/>
			<point x="257.081" y="591.136"/>
			<point x="269.081" y="663.887"/>
			<point x="251.694" y="756.129" type="curve"/>
			<point x="265.344" y="774.211"/>
			<point x="278.639" y="792.293"/>
			<point x="289.087" y="800" type="curve"/>
			<point x="301.591" y="805.347"/>
			<point x="362.898" y="811.611"/>
			<point x="394.166" y="800" type="curve"/>
			<point x="399.243" y="775.949"/>
			<point x="417.018" y="642.395"/>
			<point x="280.123" y="488.114" type="curve"/>
		</contour>
	</outline>
</glyph>
<glyph name="downArrow" format="2">
	<advance width="864"/>
	<unicode hex="2193"/>
	<outline>
		<contour>
			<point x="147" y="154" type="curve"/>
			<point x="50" y="203" type="line"/>
			<point x="126" y="346" type="line"/>
			<point x="225" y="281"/>
			<point x="304" y="235"/>
			<point x="385" y="185" type="curve"/>
			<point x="364" y="164" type="line"/>
			<point x="364" y="793" type="line"/>
			<point x="370" y="798"/>
			<point x="416" y="817"/>
			<point x="430" y="817" type="curve" smooth="yes"/>
			<point x="443" y="817"/>
			<point x="542" y="776"/>
			<point x="550" y="769" type="curve"/>
			<point x="534" y="708"/>
			<point x="530" y="611"/>
			<point x="530" y="558" type="curve" smooth="yes"/>
			<point x="534" y="155" type="line"/>
			<point x="516" y="180" type="line"/>
			<point x="599" y="231"/>
			<point x="681" y="279"/>
			<point x="783" y="346" type="curve"/>
			<point x="859" y="203" type="line"/>
			<point x="762" y="154" type="line"/>
			<point x="692" y="110"/>
			<point x="467" y="-28"/>
			<point x="457" y="-28" type="curve"/>
			<point x="450" y="-28"/>
			<point x="216" y="111"/>
		</contour>
	</outline>
</glyph>
<glyph name="northWestArrow" format="2">
	<advance width="845"/>
	<unicode hex="2196"/>
	<outline>
		<contour>
			<point x="686" y="727" type="curve"/>
			<point x="795" y="720" type="line"/>
			<point x="781" y="559" type="line"/>
			<point x="664" y="580"/>
			<point x="573" y="591"/>
			<point x="479" y="606" type="curve"/>
			<point x="490" y="633" type="line"/>
			<point x="736" y="54" type="line"/>
			<point x="733" y="47"/>
			<point x="698" y="12"/>
			<point x="685" y="7" type="curve" smooth="yes"/>
			<point x="673" y="1"/>
			<point x="566" y="1"/>
			<point x="556" y="4" type="curve"/>
			<point x="547" y="66"/>
			<point x="512" y="157"/>
			<point x="492" y="206" type="curve"/>
			<point x="337" y="561" type="line"/>
			<point x="335" y="564"/>
			<point x="333" y="569"/>
			<point x="330" y="575" type="curve"/>
			<point x="357" y="559" type="line"/>
			<point x="300" y="480"/>
			<point x="244" y="404"/>
			<point x="176" y="302" type="curve"/>
			<point x="50" y="404" type="line"/>
			<point x="120" y="487" type="line"/>
			<point x="167" y="555"/>
			<point x="321" y="770"/>
			<point x="330" y="774" type="curve"/>
			<point x="336" y="777"/>
			<point x="606" y="740"/>
		</contour>
	</outline>
</glyph>
<glyph name="southWestArrow" format="2">
	<advance width="845"/>
	<unicode hex="2199"/>
	<outline>
		<contour>
			<point x="686" y="50" type="line"/>
			<point x="606" y="37"/>
			<point x="336" y="0"/>
			<point x="330" y="3" type="curve"/>
			<point x="321" y="7"/>
			<point x="167" y="222"/>
			<point x="120" y="290" type="curve"/>
			<point x="50" y="373" type="line"/>
			<point x="176" y="475" type="line"/>
			<point x="244" y="373"/>
			<point x="300" y="297"/>
			<point x="357" y="218" type="curve"/>
			<point x="330" y="202" type="line"/>
			<point x="333" y="208"/>
			<point x="335" y="213"/>
			<point x="337" y="216" type="curve"/>
			<point x="492" y="571" type="line"/>
			<point x="512" y="620"/>
			<point x="547" y="711"/>
			<point x="556" y="773" type="curve"/>
			<point x="566" y="776"/>
			<point x="673" y="776"/>
			<point x="685" y="770" type="curve" smooth="yes"/>
			<point x="698" y="765"/>
			<point x="733" y="730"/>
			<point x="736" y="723" type="curve"/>
			<point x="490" y="144" type="line"/>
			<point x="479" y="171" type="line"/>
			<point x="573" y="186"/>
			<point x="664" y="197"/>
			<point x="781" y="218" type="curve"/>
			<point x="795" y="57" type="line"/>
		</contour>
	</outline>
</glyph>
<glyph name="pic.biblio" format="2">
	<advance width="1004"/>
	<guideline x="-10" y="729" angle="0"/>
	<guideline x="20" y="0" angle="0"/>
	<guideline x="536" y="0" angle="0"/>
	<guideline x="285" y="0" angle="0"/>
	<anchor x="107" y="600" name="top"/>
	<anchor x="265" y="0" name="bottom"/>
	<anchor x="487" y="10" name="ogonek"/>
	<anchor x="1290" y="-569" name="topleft"/>
	<outline>
		<contour>
			<point x="64" y="81" type="curve"/>
			<point x="197" y="104"/>
			<point x="333" y="104"/>
			<point x="467" y="81" type="curve"/>
			<point x="508" y="111" type="line"/>
			<point x="541" y="81" type="line"/>
			<point x="678" y="104"/>
			<point x="806" y="104"/>
			<point x="941" y="81" type="curve"/>
			<point x="936" y="117"/>
			<point x="941" y="466"/>
			<point x="941" y="530" type="curve" smooth="yes"/>
			<point x="941" y="612"/>
			<point x="946" y="671"/>
			<point x="954" y="700" type="curve"/>
			<point x="926" y="719"/>
			<point x="897" y="738"/>
			<point x="887" y="742" type="curve" smooth="yes"/>
			<point x="773" y="763"/>
			<point x="663" y="763"/>
			<point x="550" y="742" type="curve"/>
			<point x="508" y="703" type="line"/>
			<point x="450" y="742" type="line"/>
			<point x="349" y="763"/>
			<point x="238" y="763"/>
			<point x="136" y="742" type="curve"/>
			<point x="50" y="694" type="line"/>
			<point x="60" y="674"/>
			<point x="64" y="521"/>
			<point x="64" y="563" type="curve" smooth="yes"/>
			<point x="64" y="684"/>
			<point x="70" y="110"/>
		</contour>
		<contour>
			<point x="164" y="587" type="line" smooth="yes"/>
			<point x="164" y="608"/>
			<point x="168" y="632"/>
			<point x="171" y="658" type="curve"/>
			<point x="226" y="688"/>
			<point x="325" y="693"/>
			<point x="457" y="665" type="curve"/>
			<point x="457" y="160" type="line"/>
			<point x="361" y="185"/>
			<point x="225" y="188"/>
			<point x="170" y="168" type="curve"/>
			<point x="168" y="208"/>
			<point x="164" y="255"/>
			<point x="164" y="298" type="curve" smooth="yes"/>
		</contour>
		<contour>
			<point x="850" y="578" type="curve" smooth="yes"/>
			<point x="850" y="290" type="line" smooth="yes"/>
			<point x="850" y="236"/>
			<point x="845" y="187"/>
			<point x="840" y="158" type="curve"/>
			<point x="764" y="179"/>
			<point x="637" y="185"/>
			<point x="553" y="160" type="curve"/>
			<point x="553" y="665" type="line"/>
			<point x="699" y="693"/>
			<point x="795" y="676"/>
			<point x="845" y="648" type="curve"/>
			<point x="848" y="625"/>
			<point x="850" y="600"/>
		</contour>
	</outline>
</glyph>
<glyph name="pic.cafe" format="2">
	<advance width="760"/>
	<guideline x="193" y="0" angle="0"/>
	<guideline x="712" y="0" angle="0"/>
	<guideline x="58" y="470" angle="0"/>
	<guideline x="58" y="452" angle="0"/>
	<anchor x="-27" y="538" name="_top"/>
	<outline>
		<contour>
			<point x="609" y="427" type="curve"/>
			<point x="627" y="413" type="line"/>
			<point x="281" y="413" type="line"/>
			<point x="297" y="433" type="line"/>
			<point x="293" y="399"/>
			<point x="291" y="337"/>
			<point x="291" y="309" type="curve" smooth="yes"/>
			<point x="291" y="157"/>
			<point x="341" y="89"/>
			<point x="464" y="89" type="curve" smooth="yes"/>
			<point x="552" y="89"/>
			<point x="585" y="143"/>
			<point x="594" y="165" type="curve"/>
			<point x="599" y="175"/>
			<point x="614" y="233"/>
			<point x="614" y="297" type="curve" smooth="yes"/>
			<point x="614" y="337"/>
			<point x="614" y="405"/>
		</contour>
		<contour>
			<point x="708" y="491" type="curve"/>
			<point x="710" y="363" type="line"/>
			<point x="710" y="107"/>
			<point x="599" y="17"/>
			<point x="447" y="17" type="curve" smooth="yes"/>
			<point x="261" y="17"/>
			<point x="195" y="163"/>
			<point x="195" y="354" type="curve"/>
			<point x="196" y="491" type="line"/>
			<point x="221" y="488"/>
			<point x="316" y="486"/>
			<point x="452" y="486" type="curve" smooth="yes"/>
			<point x="590" y="486"/>
			<point x="687" y="488"/>
		</contour>
		<contour>
			<point x="260" y="130" type="line"/>
			<point x="107" y="130"/>
			<point x="50" y="197"/>
			<point x="50" y="297" type="curve" smooth="yes"/>
			<point x="50" y="383"/>
			<point x="115" y="430"/>
			<point x="204" y="410" type="curve"/>
			<point x="216" y="341" type="line"/>
			<point x="175" y="358"/>
			<point x="123" y="361"/>
			<point x="123" y="293" type="curve" smooth="yes"/>
			<point x="123" y="216"/>
			<point x="169" y="188"/>
			<point x="241" y="201" type="curve"/>
		</contour>
		<contour>
			<point x="351" y="544" type="curve"/>
			<point x="411" y="561" type="line"/>
			<point x="405" y="576"/>
			<point x="396" y="610"/>
			<point x="394" y="620" type="curve"/>
			<point x="391" y="636"/>
			<point x="430" y="697"/>
			<point x="442" y="722" type="curve"/>
			<point x="442" y="742"/>
			<point x="432" y="776"/>
			<point x="425" y="790" type="curve" smooth="yes"/>
			<point x="416" y="808"/>
			<point x="409" y="820"/>
			<point x="403" y="830" type="curve"/>
			<point x="335" y="814" type="line"/>
			<point x="342" y="801"/>
			<point x="344" y="786"/>
			<point x="346" y="778" type="curve"/>
			<point x="349" y="761"/>
			<point x="312" y="726"/>
			<point x="299" y="687" type="curve"/>
			<point x="303" y="650"/>
			<point x="312" y="616"/>
			<point x="315" y="595" type="curve"/>
			<point x="319" y="580"/>
			<point x="341" y="557"/>
		</contour>
		<contour>
			<point x="502" y="517" type="curve"/>
			<point x="569" y="545" type="line"/>
			<point x="563" y="559"/>
			<point x="559" y="572"/>
			<point x="558" y="579" type="curve"/>
			<point x="555" y="595"/>
			<point x="595" y="642"/>
			<point x="606" y="672" type="curve"/>
			<point x="604" y="699"/>
			<point x="598" y="744"/>
			<point x="590" y="761" type="curve" smooth="yes"/>
			<point x="581" y="780"/>
			<point x="571" y="795"/>
			<point x="561" y="810" type="curve"/>
			<point x="494" y="794" type="line"/>
			<point x="500" y="778"/>
			<point x="511" y="735"/>
			<point x="511" y="727" type="curve" smooth="yes"/>
			<point x="511" y="710"/>
			<point x="475" y="676"/>
			<point x="464" y="636" type="curve"/>
			<point x="465" y="614"/>
			<point x="475" y="587"/>
			<point x="479" y="566" type="curve"/>
			<point x="482" y="556"/>
			<point x="491" y="535"/>
		</contour>
	</outline>
</glyph>
<glyph name="pic.hombre" format="2">
	<advance width="676"/>
	<guideline x="586" y="0" angle="0"/>
	<guideline x="69" y="0" angle="0"/>
	<guideline x="17" y="949" angle="0"/>
	<guideline x="318" y="0" angle="0"/>
	<guideline x="558" y="0" angle="0"/>
	<guideline x="17" y="1000" angle="0"/>
	<guideline x="17" y="467" angle="0"/>
	<outline>
		<contour>
			<point x="356" y="620" type="curve" smooth="yes"/>
			<point x="418" y="620"/>
			<point x="468" y="664"/>
			<point x="468" y="727" type="curve" smooth="yes"/>
			<point x="468" y="788"/>
			<point x="418" y="830"/>
			<point x="356" y="830" type="curve" smooth="yes"/>
			<point x="293" y="830"/>
			<point x="242" y="788"/>
			<point x="242" y="727" type="curve" smooth="yes"/>
			<point x="242" y="664"/>
			<point x="293" y="620"/>
		</contour>
		<contour>
			<point x="161" y="489" type="line"/>
			<point x="135" y="461" type="line"/>
			<point x="275" y="472"/>
			<point x="488" y="471"/>
			<point x="539" y="457" type="curve"/>
			<point x="513" y="483" type="line"/>
			<point x="503" y="426"/>
			<point x="481" y="365"/>
			<point x="449" y="301" type="curve" smooth="yes"/>
			<point x="418" y="237"/>
			<point x="340" y="98"/>
			<point x="321" y="78" type="curve"/>
			<point x="364" y="79" type="line"/>
		</contour>
		<contour>
			<point x="50" y="512" type="curve"/>
			<point x="50" y="466" type="line"/>
			<point x="59" y="460"/>
			<point x="83" y="416"/>
			<point x="99" y="384" type="curve" smooth="yes"/>
			<point x="219" y="152" type="line" smooth="yes"/>
			<point x="249" y="93"/>
			<point x="265" y="60"/>
			<point x="278" y="46" type="curve"/>
			<point x="303" y="23"/>
			<point x="376" y="13"/>
			<point x="396" y="23" type="curve"/>
			<point x="626" y="466" type="line"/>
			<point x="626" y="500" type="line"/>
			<point x="618" y="510"/>
			<point x="599" y="535"/>
			<point x="583" y="546" type="curve"/>
			<point x="419" y="557"/>
			<point x="260" y="557"/>
			<point x="96" y="546" type="curve"/>
			<point x="89" y="542"/>
			<point x="59" y="521"/>
		</contour>
	</outline>
</glyph>
<glyph name="pic.uni" format="2">
	<advance width="676"/>
	<guideline x="586" y="0" angle="0"/>
	<guideline x="69" y="0" angle="0"/>
	<guideline x="17" y="949" angle="0"/>
	<guideline x="318" y="0" angle="0"/>
	<guideline x="558" y="0" angle="0"/>
	<guideline x="17" y="1000" angle="0"/>
	<guideline x="17" y="467" angle="0"/>
	<outline>
		<contour>
			<point x="356.23548" y="620" type="curve" smooth="yes"/>
			<point x="418.23548" y="620"/>
			<point x="468.23548" y="664"/>
			<point x="468.23548" y="727" type="curve" smooth="yes"/>
			<point x="468.23548" y="788"/>
			<point x="418.23548" y="830"/>
			<point x="356.23548" y="830" type="curve" smooth="yes"/>
			<point x="293.23548" y="830"/>
			<point x="242.23548" y="788"/>
			<point x="242.23548" y="727" type="curve" smooth="yes"/>
			<point x="242.23548" y="664"/>
			<point x="293.23548" y="620"/>
		</contour>
		<contour>
			<point x="50.23548" y="469" type="line"/>
			<point x="55.70824" y="464.7434"/>
			<point x="111.09731" y="383.02433"/>
			<point x="178.57992" y="272.07057" type="curve"/>
			<point x="60.23548" y="94" type="line"/>
			<point x="60.23548" y="63" type="line"/>
			<point x="68.23548" y="53"/>
			<point x="87.23548" y="28"/>
			<point x="103.23548" y="17" type="curve"/>
			<point x="268.23548" y="6"/>
			<point x="426.23548" y="6"/>
			<point x="591.23548" y="17" type="curve"/>
			<point x="597.23548" y="22"/>
			<point x="628.23548" y="42"/>
			<point x="637.23548" y="51" type="curve"/>
			<point x="637.23548" y="94" type="line"/>
			<point x="632.03574" y="98.04424"/>
			<point x="572.76141" y="179.2045"/>
			<point x="504.92486" y="285.71929" type="curve"/>
			<point x="627.23548" y="469" type="line"/>
			<point x="627.23548" y="500" type="line"/>
			<point x="619.23548" y="510"/>
			<point x="600.23548" y="535"/>
			<point x="584.23548" y="546" type="curve"/>
			<point x="419.23548" y="557"/>
			<point x="261.23548" y="557"/>
			<point x="96.23548" y="546" type="curve"/>
			<point x="90.23548" y="541"/>
			<point x="59.23548" y="521"/>
			<point x="50.23548" y="512" type="curve"/>
		</contour>
		<contour>
			<point x="175.95407" y="462.94564" type="line"/>
			<point x="289.55344" y="470.19052"/>
			<point x="431.97612" y="470.09377"/>
			<point x="505.186" y="462.65537" type="curve"/>
			<point x="490.42557" y="414.9085"/>
			<point x="452.765" y="350.11154"/>
			<point x="408.655" y="279.78199" type="curve"/>
			<point x="511.84144" y="100.07508" type="line"/>
			<point x="398.31982" y="92.81767"/>
			<point x="255.89307" y="92.89895"/>
			<point x="182.53843" y="100.31893" type="curve"/>
			<point x="279.29285" y="280.01889" type="line"/>
		</contour>
	</outline>
</glyph>
